<mxfile host="app.diagrams.net" modified="2024-04-17T10:23:44.867Z" agent="Mozilla/5.0 (Windows NT 10.0; Win64; x64) AppleWebKit/537.36 (KHTML, like Gecko) Chrome/123.0.0.0 Safari/537.36" etag="DrrGqN8u2-dO6vAddo2L" version="24.2.5" type="device">
  <diagram name="Page-1" id="b5b7bab2-c9e2-2cf4-8b2a-24fd1a2a6d21">
    <mxGraphModel dx="1195" dy="643" grid="1" gridSize="10" guides="1" tooltips="1" connect="1" arrows="1" fold="1" page="1" pageScale="1" pageWidth="827" pageHeight="1169" background="none" math="0" shadow="0">
      <root>
        <mxCell id="0" />
        <mxCell id="1" parent="0" />
        <mxCell id="B0uIKP4Ea5cAI0LBzVmF-2" value="&lt;b&gt;&lt;u&gt;OVWEB&lt;/u&gt;&lt;/b&gt;" style="shape=umlFrame;whiteSpace=wrap;html=1;pointerEvents=0;recursiveResize=0;container=1;collapsible=0;width=160;" parent="1" vertex="1">
          <mxGeometry x="570" y="220" width="480" height="500" as="geometry" />
        </mxCell>
        <mxCell id="B0uIKP4Ea5cAI0LBzVmF-18" style="edgeStyle=orthogonalEdgeStyle;rounded=0;orthogonalLoop=1;jettySize=auto;html=1;entryX=0.565;entryY=0.266;entryDx=0;entryDy=0;entryPerimeter=0;dashed=1;startArrow=none;startFill=0;endArrow=open;endFill=0;" parent="B0uIKP4Ea5cAI0LBzVmF-2" source="B0uIKP4Ea5cAI0LBzVmF-3" target="B0uIKP4Ea5cAI0LBzVmF-6" edge="1">
          <mxGeometry relative="1" as="geometry">
            <Array as="points">
              <mxPoint x="280" y="170" />
              <mxPoint x="280" y="170" />
            </Array>
          </mxGeometry>
        </mxCell>
        <mxCell id="B0uIKP4Ea5cAI0LBzVmF-19" value="consumes" style="edgeLabel;html=1;align=center;verticalAlign=middle;resizable=0;points=[];" parent="B0uIKP4Ea5cAI0LBzVmF-18" vertex="1" connectable="0">
          <mxGeometry x="-0.356" y="1" relative="1" as="geometry">
            <mxPoint as="offset" />
          </mxGeometry>
        </mxCell>
        <mxCell id="B0uIKP4Ea5cAI0LBzVmF-3" value="Frontend - Next.js 14" style="shape=folder;fontStyle=1;tabWidth=130;tabHeight=30;tabPosition=left;html=1;boundedLbl=1;labelInHeader=1;container=1;collapsible=0;recursiveResize=0;whiteSpace=wrap;fillColor=#dae8fc;strokeColor=#6c8ebf;" parent="B0uIKP4Ea5cAI0LBzVmF-2" vertex="1">
          <mxGeometry x="200" y="20" width="160" height="110" as="geometry" />
        </mxCell>
        <mxCell id="B0uIKP4Ea5cAI0LBzVmF-4" value="Next.js with Typescript" style="html=1;whiteSpace=wrap;fillColor=#f5f5f5;strokeColor=#666666;fontColor=#333333;" parent="B0uIKP4Ea5cAI0LBzVmF-3" vertex="1">
          <mxGeometry width="110" height="30" relative="1" as="geometry">
            <mxPoint x="20" y="50" as="offset" />
          </mxGeometry>
        </mxCell>
        <mxCell id="B0uIKP4Ea5cAI0LBzVmF-27" style="edgeStyle=orthogonalEdgeStyle;rounded=0;orthogonalLoop=1;jettySize=auto;html=1;exitX=0.75;exitY=1;exitDx=0;exitDy=0;exitPerimeter=0;dashed=1;endArrow=open;endFill=0;" parent="B0uIKP4Ea5cAI0LBzVmF-2" source="B0uIKP4Ea5cAI0LBzVmF-6" target="B0uIKP4Ea5cAI0LBzVmF-25" edge="1">
          <mxGeometry relative="1" as="geometry" />
        </mxCell>
        <mxCell id="B0uIKP4Ea5cAI0LBzVmF-32" value="delegates" style="edgeLabel;html=1;align=center;verticalAlign=middle;resizable=0;points=[];" parent="B0uIKP4Ea5cAI0LBzVmF-27" vertex="1" connectable="0">
          <mxGeometry x="0.1322" y="3" relative="1" as="geometry">
            <mxPoint x="-7" as="offset" />
          </mxGeometry>
        </mxCell>
        <mxCell id="B0uIKP4Ea5cAI0LBzVmF-6" value="Backend - Java Spring Boot" style="shape=folder;fontStyle=1;tabWidth=130;tabHeight=30;tabPosition=left;html=1;boundedLbl=1;labelInHeader=1;container=1;collapsible=0;recursiveResize=0;whiteSpace=wrap;fillColor=#d5e8d4;strokeColor=#82b366;" parent="B0uIKP4Ea5cAI0LBzVmF-2" vertex="1">
          <mxGeometry x="110" y="180" width="300" height="130" as="geometry" />
        </mxCell>
        <mxCell id="B0uIKP4Ea5cAI0LBzVmF-7" value="SpringBootApplication" style="html=1;whiteSpace=wrap;fillColor=#f5f5f5;fontColor=#333333;strokeColor=#666666;" parent="B0uIKP4Ea5cAI0LBzVmF-6" vertex="1">
          <mxGeometry width="130" height="30" relative="1" as="geometry">
            <mxPoint x="10" y="40" as="offset" />
          </mxGeometry>
        </mxCell>
        <mxCell id="B0uIKP4Ea5cAI0LBzVmF-8" value="JPA Respositories" style="html=1;whiteSpace=wrap;fillColor=#f5f5f5;fontColor=#333333;strokeColor=#666666;" parent="B0uIKP4Ea5cAI0LBzVmF-6" vertex="1">
          <mxGeometry x="10" y="80" width="130" height="30" as="geometry" />
        </mxCell>
        <mxCell id="B0uIKP4Ea5cAI0LBzVmF-9" value="Services" style="html=1;whiteSpace=wrap;fillColor=#f5f5f5;fontColor=#333333;strokeColor=#666666;" parent="B0uIKP4Ea5cAI0LBzVmF-6" vertex="1">
          <mxGeometry x="150" y="40" width="130" height="30" as="geometry" />
        </mxCell>
        <mxCell id="B0uIKP4Ea5cAI0LBzVmF-17" value="Models" style="html=1;whiteSpace=wrap;fillColor=#f5f5f5;fontColor=#333333;strokeColor=#666666;" parent="B0uIKP4Ea5cAI0LBzVmF-6" vertex="1">
          <mxGeometry x="150" y="80" width="130" height="30" as="geometry" />
        </mxCell>
        <mxCell id="B0uIKP4Ea5cAI0LBzVmF-20" style="edgeStyle=orthogonalEdgeStyle;rounded=0;orthogonalLoop=1;jettySize=auto;html=1;exitX=0;exitY=0;exitDx=215;exitDy=30;exitPerimeter=0;dashed=1;endArrow=open;endFill=0;" parent="B0uIKP4Ea5cAI0LBzVmF-2" source="B0uIKP4Ea5cAI0LBzVmF-6" edge="1">
          <mxGeometry relative="1" as="geometry">
            <mxPoint x="325" y="130" as="targetPoint" />
          </mxGeometry>
        </mxCell>
        <mxCell id="B0uIKP4Ea5cAI0LBzVmF-22" value="RESTful Services" style="edgeLabel;html=1;align=center;verticalAlign=middle;resizable=0;points=[];" parent="B0uIKP4Ea5cAI0LBzVmF-20" vertex="1" connectable="0">
          <mxGeometry x="-0.6722" relative="1" as="geometry">
            <mxPoint x="22" y="-7" as="offset" />
          </mxGeometry>
        </mxCell>
        <mxCell id="B0uIKP4Ea5cAI0LBzVmF-23" value="&lt;b&gt;Datenbank - PostgreSQL&lt;/b&gt;" style="strokeWidth=2;html=1;shape=mxgraph.flowchart.database;whiteSpace=wrap;align=center;fillColor=#fff2cc;strokeColor=#d6b656;" parent="B0uIKP4Ea5cAI0LBzVmF-2" vertex="1">
          <mxGeometry x="50" y="360" width="150" height="110" as="geometry" />
        </mxCell>
        <mxCell id="B0uIKP4Ea5cAI0LBzVmF-24" value="&lt;b&gt;Flyway Migration&lt;/b&gt;" style="shape=module;align=left;spacingLeft=20;align=center;verticalAlign=top;whiteSpace=wrap;html=1;fillColor=#fff2cc;strokeColor=#d6b656;" parent="B0uIKP4Ea5cAI0LBzVmF-2" vertex="1">
          <mxGeometry x="10" y="440" width="100" height="50" as="geometry" />
        </mxCell>
        <mxCell id="B0uIKP4Ea5cAI0LBzVmF-25" value="&lt;b&gt;Identity Manager - Keycloak&lt;/b&gt;" style="shape=module;align=left;spacingLeft=20;align=center;verticalAlign=top;whiteSpace=wrap;html=1;fillColor=#e1d5e7;strokeColor=#9673a6;" parent="B0uIKP4Ea5cAI0LBzVmF-2" vertex="1">
          <mxGeometry x="260" y="370" width="150" height="60" as="geometry" />
        </mxCell>
        <mxCell id="B0uIKP4Ea5cAI0LBzVmF-28" style="edgeStyle=orthogonalEdgeStyle;rounded=0;orthogonalLoop=1;jettySize=auto;html=1;entryX=0.5;entryY=0;entryDx=0;entryDy=0;entryPerimeter=0;dashed=1;endArrow=open;endFill=0;" parent="B0uIKP4Ea5cAI0LBzVmF-2" target="B0uIKP4Ea5cAI0LBzVmF-23" edge="1">
          <mxGeometry relative="1" as="geometry">
            <mxPoint x="125" y="310" as="sourcePoint" />
            <Array as="points">
              <mxPoint x="125" y="310" />
            </Array>
          </mxGeometry>
        </mxCell>
        <mxCell id="B0uIKP4Ea5cAI0LBzVmF-34" value="stores data" style="edgeLabel;html=1;align=center;verticalAlign=middle;resizable=0;points=[];" parent="B0uIKP4Ea5cAI0LBzVmF-28" vertex="1" connectable="0">
          <mxGeometry x="0.331" y="-1" relative="1" as="geometry">
            <mxPoint x="-14" y="-13" as="offset" />
          </mxGeometry>
        </mxCell>
        <mxCell id="B0uIKP4Ea5cAI0LBzVmF-29" style="edgeStyle=orthogonalEdgeStyle;rounded=0;orthogonalLoop=1;jettySize=auto;html=1;entryX=0.177;entryY=0.991;entryDx=0;entryDy=0;entryPerimeter=0;dashed=1;endArrow=open;endFill=0;exitX=0.754;exitY=0.018;exitDx=0;exitDy=0;exitPerimeter=0;" parent="B0uIKP4Ea5cAI0LBzVmF-2" source="B0uIKP4Ea5cAI0LBzVmF-23" target="B0uIKP4Ea5cAI0LBzVmF-6" edge="1">
          <mxGeometry relative="1" as="geometry">
            <mxPoint x="163" y="360" as="sourcePoint" />
            <Array as="points" />
          </mxGeometry>
        </mxCell>
        <mxCell id="B0uIKP4Ea5cAI0LBzVmF-35" value="sends data" style="edgeLabel;html=1;align=center;verticalAlign=middle;resizable=0;points=[];" parent="B0uIKP4Ea5cAI0LBzVmF-29" vertex="1" connectable="0">
          <mxGeometry x="-0.4" y="-2" relative="1" as="geometry">
            <mxPoint x="15" as="offset" />
          </mxGeometry>
        </mxCell>
        <mxCell id="B0uIKP4Ea5cAI0LBzVmF-30" style="edgeStyle=orthogonalEdgeStyle;rounded=0;orthogonalLoop=1;jettySize=auto;html=1;exitX=0.75;exitY=0;exitDx=0;exitDy=0;entryX=0.872;entryY=0.993;entryDx=0;entryDy=0;entryPerimeter=0;dashed=1;endArrow=open;endFill=0;" parent="B0uIKP4Ea5cAI0LBzVmF-2" source="B0uIKP4Ea5cAI0LBzVmF-25" target="B0uIKP4Ea5cAI0LBzVmF-6" edge="1">
          <mxGeometry relative="1" as="geometry" />
        </mxCell>
        <mxCell id="B0uIKP4Ea5cAI0LBzVmF-31" value="provides ID" style="edgeLabel;html=1;align=center;verticalAlign=middle;resizable=0;points=[];" parent="B0uIKP4Ea5cAI0LBzVmF-30" vertex="1" connectable="0">
          <mxGeometry x="-0.0303" y="-1" relative="1" as="geometry">
            <mxPoint x="10" y="19" as="offset" />
          </mxGeometry>
        </mxCell>
        <mxCell id="x2GLxK2cUlACxFuEybgD-1" style="edgeStyle=orthogonalEdgeStyle;rounded=0;orthogonalLoop=1;jettySize=auto;html=1;entryX=0;entryY=0;entryDx=160;entryDy=50;entryPerimeter=0;dashed=1;endArrow=open;endFill=0;" parent="B0uIKP4Ea5cAI0LBzVmF-2" source="B0uIKP4Ea5cAI0LBzVmF-25" target="B0uIKP4Ea5cAI0LBzVmF-3" edge="1">
          <mxGeometry relative="1" as="geometry">
            <mxPoint x="451" y="395" as="sourcePoint" />
            <mxPoint x="450" y="334" as="targetPoint" />
            <Array as="points">
              <mxPoint x="440" y="400" />
              <mxPoint x="440" y="70" />
            </Array>
          </mxGeometry>
        </mxCell>
        <mxCell id="x2GLxK2cUlACxFuEybgD-2" value="provides ID" style="edgeLabel;html=1;align=center;verticalAlign=middle;resizable=0;points=[];" parent="x2GLxK2cUlACxFuEybgD-1" vertex="1" connectable="0">
          <mxGeometry x="-0.0303" y="-1" relative="1" as="geometry">
            <mxPoint x="-31" y="-156" as="offset" />
          </mxGeometry>
        </mxCell>
        <mxCell id="x2GLxK2cUlACxFuEybgD-3" style="edgeStyle=orthogonalEdgeStyle;rounded=0;orthogonalLoop=1;jettySize=auto;html=1;exitX=0;exitY=0;exitDx=160;exitDy=70;exitPerimeter=0;dashed=1;endArrow=open;endFill=0;entryX=1;entryY=0.25;entryDx=0;entryDy=0;" parent="B0uIKP4Ea5cAI0LBzVmF-2" source="B0uIKP4Ea5cAI0LBzVmF-3" target="B0uIKP4Ea5cAI0LBzVmF-25" edge="1">
          <mxGeometry relative="1" as="geometry">
            <mxPoint x="430" y="320" as="sourcePoint" />
            <mxPoint x="430" y="380" as="targetPoint" />
          </mxGeometry>
        </mxCell>
        <mxCell id="x2GLxK2cUlACxFuEybgD-4" value="delegates" style="edgeLabel;html=1;align=center;verticalAlign=middle;resizable=0;points=[];" parent="x2GLxK2cUlACxFuEybgD-3" vertex="1" connectable="0">
          <mxGeometry x="0.1322" y="3" relative="1" as="geometry">
            <mxPoint x="-33" y="-138" as="offset" />
          </mxGeometry>
        </mxCell>
        <mxCell id="FvJhGujB0VJ013y4WV2M-2" value="&lt;b&gt;&lt;u&gt;Sendgrid&lt;/u&gt;&lt;/b&gt;" style="shape=umlFrame;whiteSpace=wrap;html=1;pointerEvents=0;recursiveResize=0;container=1;collapsible=0;width=160;" parent="1" vertex="1">
          <mxGeometry x="1080" y="550" width="210" height="50" as="geometry" />
        </mxCell>
        <mxCell id="FvJhGujB0VJ013y4WV2M-25" value="&lt;b&gt;&lt;u&gt;ANGEBOTSoftware&lt;/u&gt;&lt;/b&gt;" style="shape=umlFrame;whiteSpace=wrap;html=1;pointerEvents=0;recursiveResize=0;container=1;collapsible=0;width=160;" parent="1" vertex="1">
          <mxGeometry x="1080" y="270" width="270" height="160" as="geometry" />
        </mxCell>
        <mxCell id="FvJhGujB0VJ013y4WV2M-26" value="Delphi REST&amp;nbsp; Applikation" style="shape=folder;fontStyle=1;tabWidth=130;tabHeight=30;tabPosition=left;html=1;boundedLbl=1;labelInHeader=1;container=1;collapsible=0;recursiveResize=0;whiteSpace=wrap;fillColor=#d5e8d4;strokeColor=#82b366;" parent="FvJhGujB0VJ013y4WV2M-25" vertex="1">
          <mxGeometry x="55" y="55" width="160" height="60" as="geometry" />
        </mxCell>
        <mxCell id="FvJhGujB0VJ013y4WV2M-27" style="edgeStyle=orthogonalEdgeStyle;rounded=0;orthogonalLoop=1;jettySize=auto;html=1;entryX=0.25;entryY=1;entryDx=0;entryDy=0;entryPerimeter=0;dashed=1;startArrow=none;startFill=0;endArrow=open;endFill=0;exitX=0;exitY=0;exitDx=300;exitDy=55;exitPerimeter=0;" parent="1" source="B0uIKP4Ea5cAI0LBzVmF-6" target="FvJhGujB0VJ013y4WV2M-26" edge="1">
          <mxGeometry relative="1" as="geometry">
            <Array as="points">
              <mxPoint x="1175" y="455" />
            </Array>
            <mxPoint x="860" y="360" as="sourcePoint" />
            <mxPoint x="860" y="445" as="targetPoint" />
          </mxGeometry>
        </mxCell>
        <mxCell id="FvJhGujB0VJ013y4WV2M-28" value="consumes" style="edgeLabel;html=1;align=center;verticalAlign=middle;resizable=0;points=[];" parent="FvJhGujB0VJ013y4WV2M-27" vertex="1" connectable="0">
          <mxGeometry x="-0.356" y="1" relative="1" as="geometry">
            <mxPoint x="75" y="-14" as="offset" />
          </mxGeometry>
        </mxCell>
        <mxCell id="FvJhGujB0VJ013y4WV2M-32" style="edgeStyle=orthogonalEdgeStyle;rounded=0;orthogonalLoop=1;jettySize=auto;html=1;dashed=1;endArrow=open;endFill=0;entryX=0;entryY=0;entryDx=300;entryDy=80;entryPerimeter=0;" parent="1" source="FvJhGujB0VJ013y4WV2M-26" target="B0uIKP4Ea5cAI0LBzVmF-6" edge="1">
          <mxGeometry relative="1" as="geometry">
            <mxPoint x="980" y="490" as="targetPoint" />
            <mxPoint x="1330" y="515" as="sourcePoint" />
            <Array as="points">
              <mxPoint x="1215" y="480" />
            </Array>
          </mxGeometry>
        </mxCell>
        <mxCell id="FvJhGujB0VJ013y4WV2M-33" value="RESTful Services" style="edgeLabel;html=1;align=center;verticalAlign=middle;resizable=0;points=[];" parent="FvJhGujB0VJ013y4WV2M-32" vertex="1" connectable="0">
          <mxGeometry x="-0.6722" relative="1" as="geometry">
            <mxPoint x="45" y="16" as="offset" />
          </mxGeometry>
        </mxCell>
        <mxCell id="FvJhGujB0VJ013y4WV2M-40" style="edgeStyle=orthogonalEdgeStyle;rounded=0;orthogonalLoop=1;jettySize=auto;html=1;dashed=1;startArrow=none;startFill=0;endArrow=open;endFill=0;exitX=0;exitY=0;exitDx=300;exitDy=55;exitPerimeter=0;entryX=0.433;entryY=-0.074;entryDx=0;entryDy=0;entryPerimeter=0;" parent="1" target="FvJhGujB0VJ013y4WV2M-2" edge="1">
          <mxGeometry relative="1" as="geometry">
            <Array as="points">
              <mxPoint x="1171" y="500" />
            </Array>
            <mxPoint x="980" y="500" as="sourcePoint" />
            <mxPoint x="1170" y="510" as="targetPoint" />
          </mxGeometry>
        </mxCell>
        <mxCell id="FvJhGujB0VJ013y4WV2M-41" value="consumes" style="edgeLabel;html=1;align=center;verticalAlign=middle;resizable=0;points=[];" parent="FvJhGujB0VJ013y4WV2M-40" vertex="1" connectable="0">
          <mxGeometry x="-0.356" y="1" relative="1" as="geometry">
            <mxPoint x="62" y="11" as="offset" />
          </mxGeometry>
        </mxCell>
      </root>
    </mxGraphModel>
  </diagram>
</mxfile>
